<?xml version='1.0' encoding='iso-8859-1'?>
<!DOCTYPE svg PUBLIC '-//W3C//DTD SVG 1.1//EN' 'http://www.w3.org/Graphics/SVG/1.1/DTD/svg11.dtd'>
<svg version="1.1" xmlns="http://www.w3.org/2000/svg" viewBox="0 0 512 512" xmlns:xlink="http://www.w3.org/1999/xlink" enable-background="new 0 0 512 512">
  <g>
    <path d="m464,32h-416c-26.469,0-48,21.531-48,48v64c0,8.844 7.156,16 16,16h16v304c0,8.844 7.156,16 16,16h416c8.844,0 16-7.156 16-16v-304h16c8.844,0 16-7.156 16-16v-64c0-26.469-21.531-48-48-48zm-16,416h-384v-288h384v288zm32-320h-16-416-16v-48c0-8.828 7.172-16 16-16h416c8.828,0 16,7.172 16,16v48z"/>
    <path d="m208,288h96c26.469,0 48-21.531 48-48 0-26.469-21.531-48-48-48h-96c-26.469,0-48,21.531-48,48 0,26.469 21.531,48 48,48zm0-64h96c8.828,0 16,7.172 16,16s-7.172,16-16,16h-96c-8.828,0-16-7.172-16-16s7.172-16 16-16z"/>
  </g>
</svg>
